M48
INCH,TZ
VER,1
FMAT,2
DETECT,ON
ATC,ON
T1C0.00787
T2C0.01500
T3C0.01200
T4C0.01181
T5C0.04016
T6C0.03900
%
T1
X0.01250Y-0.75000
X0.36875Y-0.00625
X0.39063
X0.68125Y-0.01563
X0.62813
X0.65625
X0.31562Y-1.25313
X0.34687
X0.66875Y-1.25000
X0.63750
X0.81250Y-1.25313
X0.63750Y-1.28125
X0.63125Y-1.35000
Y-1.37812
X0.31562Y-1.28438
Y-1.37812
Y-1.34688
Y-1.31563
X0.15938Y-1.28438
Y-1.37812
Y-1.34688
Y-1.31563
X0.06562Y-1.28438
Y-1.37812
Y-1.34688
Y-1.31563
X0.12812Y-1.28438
X0.09687
X0.12812Y-1.37812
Y-1.34688
Y-1.31563
X0.09687Y-1.37812
Y-1.34688
Y-1.31563
X0.22187Y-1.28438
Y-1.37812
Y-1.34688
Y-1.31563
X0.19062Y-1.28438
Y-1.37812
Y-1.34688
Y-1.31563
X0.28437Y-1.28438
X0.25312
X0.28437Y-1.37812
Y-1.34688
Y-1.31563
X0.25312Y-1.37812
Y-1.34688
Y-1.31563
X0.47813Y-1.35000
Y-1.37812
X0.37812Y-1.28125
X0.38438Y-1.37812
Y-1.35000
X0.34687Y-1.28438
X0.44688Y-1.35000
Y-1.37812
X0.41562
Y-1.35000
X0.44375Y-1.27500
X0.53750Y-1.35000
X0.50938
Y-1.37812
X0.51250Y-1.27500
X0.60625Y-1.28125
X0.60000Y-1.35000
X0.56875
X0.60000Y-1.37812
X0.68750
X0.65938
X0.84375Y-1.28438
Y-1.37812
Y-1.34688
Y-1.31563
X0.81250Y-1.37812
Y-1.34688
Y-1.31563
Y-1.28438
X0.63750Y-1.21875
Y-1.15625
Y-1.18750
X0.61725Y-0.87032
X0.63750Y-0.53750
X0.63125Y-0.10312
X0.63600Y-1.11407
X0.14375Y-0.61562
X0.17500Y-0.61875
X0.31562Y-1.22187
X0.31220Y-0.85807
Y-0.89744
Y-0.93681
Y-0.81870
Y-0.70059
Y-0.73996
Y-0.77933
X0.09882Y-0.95647
X0.07975Y-0.93907
X0.10475Y-0.93282
X0.27283Y-0.93681
X0.23346
X0.16725Y-0.99220
X0.15039Y-1.03031
X0.15312Y-1.20000
X0.10625Y-1.10313
X0.13125Y-1.20000
X0.08750
X0.10312Y-1.22812
X0.01875Y-1.05000
X0.09569Y-0.98147
X0.13125Y-1.01563
X0.10625Y-1.07813
X0.08437Y-1.01563
X0.10625Y-1.00625
X0.29375Y-1.10625
X0.20000Y-1.22812
X0.10000Y-0.79063
X0.10475Y-0.84220
Y-0.89532
X0.08912Y-0.91407
X0.27283Y-0.77933
X0.23346
X0.27283Y-0.85807
X0.23346
X0.27283Y-0.89744
X0.23346
X0.27283Y-0.81870
X0.23346
X0.27283Y-0.70059
Y-0.73996
X0.23346Y-0.70059
Y-0.73996
X0.35157Y-0.93681
X0.39094
X0.43032
X0.46969
X0.36914Y-1.10532
X0.34687Y-1.22187
X0.44375Y-1.12813
Y-1.21563
Y-1.18750
Y-1.15625
X0.40000Y-1.21563
X0.34375Y-1.18745
X0.39063Y-1.18757
X0.44375Y-1.06250
X0.42188Y-1.05000
X0.40295Y-1.02766
X0.51875Y-1.12813
X0.51250Y-1.21875
Y-1.18750
Y-1.15625
X0.60625Y-1.21875
Y-1.15625
Y-1.18438
X0.57500Y-1.15625
X0.54375
X0.57500Y-1.18438
X0.54375
X0.57500Y-1.21875
X0.54375
X0.51250Y-1.04063
X0.51250Y-1.06875
X0.58632Y-0.97210
X0.60787Y-1.03282
X0.58437Y-1.04375
X0.56602Y-1.03031
X0.54375Y-1.04375
X0.56250Y-0.96250
X0.46969Y-0.85807
Y-0.89744
Y-0.70059
Y-0.81870
Y-0.73996
Y-0.77933
X0.35157
X0.43032
X0.39094
X0.35157Y-0.85807
X0.39094
X0.43032
X0.35157Y-0.89744
X0.39094
X0.43032
X0.35157Y-0.81870
X0.43032
X0.39094
X0.35157Y-0.70059
Y-0.73996
X0.43032Y-0.70059
Y-0.73996
X0.39094Y-0.70059
Y-0.73996
X0.57037Y-0.71407
X0.30664Y-0.50219
X0.30313Y-0.52500
X0.32187Y-0.41875
X0.31900Y-0.18125
X0.32500Y-0.29375
X0.14375Y-0.48125
X0.15938Y-0.45937
X0.16875Y-0.56250
X0.01875Y-0.55000
X0.04375Y-0.35000
X0.06562Y-0.37812
X0.01875Y-0.45000
X0.20625Y-0.46250
X0.29375Y-0.47500
X0.21250Y-0.53125
X0.19063Y-0.57500
X0.26250Y-0.52500
X0.27187Y-0.56562
X0.24063Y-0.45313
X0.17188Y-0.02500
X0.14375Y-0.08125
X0.14375Y-0.15000
Y-0.11250
X0.09062Y-0.23750
X0.05937Y-0.03750
X0.09687
X0.23750Y-0.22500
X0.17662Y-0.12970
X0.17350Y-0.09845
X0.29225Y-0.12970
X0.39375Y-0.31562
X0.48125Y-0.59062
Y-0.52500
X0.42500Y-0.52187
X0.42188Y-0.60313
X0.58750Y-0.53750
X0.55039Y-0.60844
X0.57975Y-0.43282
X0.35938Y-0.29375
X0.36875Y-0.02813
X0.34375Y-0.12812
Y-0.07500
X0.39063Y-0.02813
X0.59688Y-0.29375
X0.51299Y-0.09843
X0.52813Y-0.05180
X0.79375Y-1.09375
X0.79375Y-1.18750
Y-1.15625
X0.75625Y-1.09375
X0.72977Y-1.11398
X0.70000Y-1.21875
Y-1.15625
Y-1.18750
X0.66875Y-1.21875
Y-1.15625
Y-1.18750
X0.76250Y-1.21875
Y-1.15625
Y-1.18750
X0.73125Y-1.21875
Y-1.15625
Y-1.18750
X0.74537Y-0.96720
X0.72975Y-1.05470
X0.70625Y-1.03438
X0.82188Y-1.18750
Y-1.15625
X0.88120Y-1.05271
X0.65625Y-0.86250
X0.75625Y-0.90000
X0.64687Y-0.64687
X0.88504Y-0.75098
X0.70664Y-0.53656
X0.69688Y-0.34687
X0.68437Y-0.42500
Y-0.45000
X0.75625Y-0.42500
Y-0.45000
X0.87812Y-0.55000
X0.88125Y-0.45000
X0.79687Y-0.03750
X0.77187Y-0.15312
X0.74375
X0.71562
X0.68125Y-0.10312
X0.65625
X0.70625Y-0.11250
X0.84062Y-0.03750
X0.13437Y0.02406
T2
X0.61412Y-0.64220
X0.64063Y-1.06563
X0.31563Y-0.55313
X0.14688Y-0.53750
X0.42188Y-0.55938
X0.77813Y-0.99063
Y-1.02188
X0.67852Y-1.03031
X0.66563Y-0.74063
X0.75000Y-0.68125
Y-0.74375
Y-0.71250
X0.76563Y-0.57188
Y-0.60938
T3
X0.28750Y-0.18125
T4
X0.75922Y-0.19892
X0.72172
X0.75922Y-0.26142
X0.74047Y-0.23017
X0.72485Y-0.26142
T5
X0.00000Y0.00000
Y-1.30000
Y-0.60000
Y-1.10000
Y-1.20000
Y-1.00000
Y-0.80000
Y-0.90000
Y-0.70000
Y-0.30000
Y-0.50000
Y-0.40000
Y-0.20000
Y-0.10000
X0.90000Y0.00000
Y-1.30000
Y-0.60000
Y-1.10000
Y-1.20000
Y-1.00000
Y-0.80000
Y-0.90000
Y-0.70000
Y-0.30000
Y-0.50000
Y-0.40000
Y-0.20000
Y-0.10000
T6
X0.45000Y-0.25000
X0.49000Y0.05000
X0.41000
M30
