M48
INCH,TZ
VER,1
FMAT,2
DETECT,ON
ATC,ON
T1C0.00787
T2C0.04016
T3C0.03937
T4C0.02756
T5C0.12520
T6C0.03500
T7C0.01181
T8C0.02756
%
T1
X-0.00313Y0.10000
X-0.09375Y-0.95000
X-0.15000Y0.12392
X-0.09375Y0.04375
X0.08437Y-0.01250
X0.66250Y0.00000
X0.60625Y0.00937
X0.70000Y0.01563
X0.24606Y0.00000
X0.28543
X0.61562Y-0.30000
Y-0.33125
Y-0.23750
X0.60000Y-0.63750
X0.33125Y-0.72500
X0.10938Y-1.02500
X0.58460Y-0.94665
X0.40000Y-0.94688
Y-1.12500
X0.33750Y-1.05000
X0.40000Y-1.02500
X0.34687Y-0.90000
X0.40000Y-0.85000
X0.44688Y-0.83125
Y-0.90000
Y-0.76250
X0.58000Y-0.78000
X0.56000
X0.52500Y-0.83125
X0.08437Y-0.05625
X0.20605Y-0.14828
X0.21875Y-0.11250
X0.24606Y-0.06890
X0.28543
X0.50000Y-0.32187
X0.55312Y-0.31875
X0.38438Y-0.47500
X0.35625Y-0.58750
X0.38991Y-0.56009
X0.37188Y-0.55937
X0.38438Y-0.49688
X0.38125Y-0.52500
X0.40937Y-0.35625
X0.60625Y-0.48125
X0.57500Y-0.52187
X0.56250Y-0.60625
X0.53750Y-0.59375
X0.50000Y-0.52500
X0.55312Y-0.37500
X0.48750Y-0.11250
Y-0.03750
X0.39203Y-0.14828
X0.36250Y-0.04688
X0.55625Y-0.20000
X0.67188Y-1.05000
X0.76563Y-1.07500
X0.81250Y-1.12813
Y-1.02813
X0.67500Y-0.88438
X0.70313
X0.76250Y-0.90000
X0.81250Y-0.85000
X0.67500Y-0.30000
Y-0.33125
X0.66250Y-0.48125
X0.72187
X0.75312Y-0.51563
Y-0.54688
X0.66562Y-0.59375
X0.72187
X0.77187Y-0.39688
X0.73438Y-0.26875
Y-0.23750
X0.71250Y-0.26875
X0.67500Y-0.23750
X0.72500Y-0.10000
X0.15625Y0.06875
X0.16250Y0.03438
X0.12500Y0.02500
X0.02953Y0.17669
X0.21250Y0.04063
X0.28750Y0.04688
X0.48750Y0.06250
Y0.12500
X0.35625Y0.02187
X0.58125Y0.08437
X1.16142Y0.22638
X1.14173Y0.20669
X1.16142Y0.18701
X1.18110Y0.20669
T2
X0.00000Y0.00000
Y-1.30000
Y-0.60000
Y-1.10000
Y-1.20000
Y-1.00000
Y-0.80000
Y-0.90000
Y-0.70000
Y-0.30000
Y-0.50000
Y-0.40000
Y-0.20000
Y-0.10000
X-0.20000Y0.00000
Y-1.30000
Y-0.60000
Y-1.10000
Y-1.20000
Y-1.00000
Y-0.80000
Y-0.90000
Y-0.70000
Y-0.30000
Y-0.50000
Y-0.40000
Y-0.20000
Y-0.10000
X1.10000Y0.00000
Y-1.30000
Y-0.60000
Y-1.10000
Y-1.20000
Y-1.00000
Y-0.80000
Y-0.90000
Y-0.70000
Y-0.30000
Y-0.50000
Y-0.40000
Y-0.20000
Y-0.10000
X0.90000Y0.00000
Y-1.30000
Y-0.60000
Y-1.10000
Y-1.20000
Y-1.00000
Y-0.80000
Y-0.90000
Y-0.70000
Y-0.30000
Y-0.50000
Y-0.40000
Y-0.20000
Y-0.10000
T3
X-0.94094Y0.00000
X-1.54094
X-1.24094
X-1.44094
X-1.34094
X-1.04094
X-1.14094
X-0.64094
X-0.74094
X-0.84094
X-1.24094Y-1.30000
Y-1.40000
Y-0.60000
Y-1.10000
Y-1.20000
Y-1.00000
Y-0.80000
Y-0.90000
Y-0.70000
Y-0.30000
Y-0.50000
Y-0.40000
Y-0.20000
Y-0.10000
X-1.54094Y-1.30000
X-1.44094
X-1.34094
X-1.54094Y-1.40000
X-1.44094
X-1.34094
Y-0.60000
X-1.54094
X-1.44094
X-1.54094Y-1.10000
Y-1.20000
Y-1.00000
Y-0.80000
Y-0.90000
Y-0.70000
X-1.44094Y-1.20000
Y-1.00000
Y-1.10000
X-1.34094
Y-1.20000
Y-1.00000
X-1.44094Y-0.90000
Y-0.70000
Y-0.80000
X-1.34094
Y-0.90000
Y-0.70000
X-1.54094Y-0.30000
Y-0.50000
Y-0.40000
Y-0.20000
Y-0.10000
X-1.34094Y-0.30000
X-1.44094
Y-0.50000
Y-0.40000
X-1.34094Y-0.50000
Y-0.40000
X-1.44094Y-0.20000
Y-0.10000
X-1.34094Y-0.20000
Y-0.10000
X-0.64094Y-1.30000
X-0.94094
X-1.04094
X-1.14094
X-0.74094
X-0.84094
X-0.64094Y-1.40000
X-0.94094
X-1.14094
X-1.04094
X-0.84094
X-0.74094
X-0.64094Y-1.20000
Y-0.50000
Y-0.60000
Y-1.10000
Y-1.00000
Y-0.80000
Y-0.90000
Y-0.70000
Y-0.30000
Y-0.40000
Y-0.20000
Y-0.10000
X-0.94094Y-0.60000
X-1.04094
X-1.14094
X-0.74094
X-0.84094
X-0.94094Y-1.10000
Y-1.20000
Y-1.00000
Y-0.80000
Y-0.90000
Y-0.70000
X-1.14094Y-1.20000
Y-1.00000
Y-1.10000
X-1.04094
Y-1.20000
Y-1.00000
X-1.14094Y-0.90000
Y-0.70000
Y-0.80000
X-1.04094
Y-0.90000
Y-0.70000
X-0.84094Y-1.10000
Y-1.20000
Y-1.00000
X-0.74094Y-1.10000
Y-1.20000
Y-1.00000
X-0.84094Y-0.80000
Y-0.90000
Y-0.70000
X-0.74094Y-0.80000
Y-0.90000
Y-0.70000
X-0.94094Y-0.30000
Y-0.50000
Y-0.40000
Y-0.20000
Y-0.10000
X-1.04094Y-0.30000
X-1.14094
Y-0.50000
Y-0.40000
X-1.04094Y-0.50000
Y-0.40000
X-1.14094Y-0.20000
Y-0.10000
X-1.04094Y-0.20000
Y-0.10000
X-0.74094Y-0.30000
X-0.84094
Y-0.50000
Y-0.40000
X-0.74094Y-0.50000
Y-0.40000
X-0.84094Y-0.20000
Y-0.10000
X-0.74094Y-0.20000
Y-0.10000
X-1.24094Y0.10000
Y0.20000
X-1.54094Y0.10000
Y0.20000
X-1.44094Y0.10000
Y0.20000
X-1.34094Y0.10000
Y0.20000
X-0.64094Y0.10000
Y0.20000
X-0.94094Y0.10000
Y0.20000
X-1.14094Y0.10000
Y0.20000
X-1.04094Y0.10000
Y0.20000
X-0.84094Y0.10000
Y0.20000
X-0.74094Y0.10000
Y0.20000
X1.74094Y0.00000
X1.64094
X1.74094Y-1.30000
X1.64094
X1.74094Y-0.60000
X1.64094
X1.74094Y-1.10000
Y-1.20000
Y-1.00000
X1.64094Y-1.10000
Y-1.20000
Y-1.00000
X1.74094Y-0.80000
Y-0.90000
Y-0.70000
X1.64094Y-0.80000
Y-0.90000
Y-0.70000
X1.74094Y-0.30000
X1.64094
X1.74094Y-0.50000
Y-0.40000
X1.64094Y-0.50000
Y-0.40000
X1.74094Y-0.20000
Y-0.10000
X1.64094Y-0.20000
Y-0.10000
X2.24094Y0.00000
X2.34094
X2.24094Y-1.30000
X2.34094
Y-0.60000
X2.24094
Y-1.10000
Y-1.20000
Y-1.00000
Y-0.80000
Y-0.90000
Y-0.70000
X2.34094Y-1.10000
Y-1.20000
Y-1.00000
Y-0.80000
Y-0.90000
Y-0.70000
X2.24094Y-0.30000
Y-0.50000
Y-0.40000
Y-0.20000
Y-0.10000
X2.34094Y-0.30000
Y-0.50000
Y-0.40000
Y-0.20000
Y-0.10000
X1.54094Y-1.42000
X1.74094
X1.64094
X1.84094
X2.24094
X2.04094
X1.94094
X2.14094
X2.34094
X2.44094
X1.54094Y0.10000
X1.74094
X1.64094
X1.84094
X2.24094
X2.04094
X1.94094
X2.14094
X2.34094
X2.44094
X1.54094Y0.20000
X1.74094
X1.64094
X1.84094
X2.24094
X2.04094
X1.94094
X2.14094
X2.34094
X2.44094
T4
X-0.47244Y-1.43701
Y-1.35827
Y-1.27953
Y-1.31890
Y-1.39764
Y-0.63976
Y-0.67913
Y-0.60039
Y-0.52165
Y-0.56102
Y0.14764
Y0.10827
Y0.06890
Y0.22638
Y0.18701
X1.36811Y-1.43701
Y-1.27953
Y-1.35827
Y-1.39764
Y-1.31890
Y-0.63976
Y-0.67913
Y-0.60039
Y-0.56102
Y-0.52165
Y0.14764
Y0.06890
Y0.10827
Y0.18701
Y0.22638
T5
X-0.10000Y-1.46250
X1.00000Y0.17500
T6
X2.44094Y0.00000
Y-1.30000
Y-0.60000
Y-1.10000
Y-1.20000
Y-1.00000
Y-0.80000
Y-0.90000
Y-0.70000
Y-0.30000
Y-0.50000
Y-0.40000
Y-0.20000
Y-0.10000
X1.54094Y0.00000
Y-1.30000
Y-0.60000
Y-0.70000
Y-0.80000
Y-1.20000
Y-1.00000
Y-0.90000
Y-1.10000
Y-0.20000
Y-0.10000
Y-0.40000
Y-0.30000
Y-0.50000
X0.25000Y-0.60000
X0.15000
Y-0.80000
Y-0.70000
X0.25000Y-0.80000
Y-0.70000
Y-0.30000
X0.15000
Y-0.50000
Y-0.40000
X0.25000Y-0.50000
Y-0.40000
X0.15000Y-0.20000
X0.25000
T7
X0.64281Y-0.43578
Y-0.37672
X0.66250Y-0.40625
X0.68219Y-0.37672
Y-0.43578
X0.45900Y-0.51675
X0.42750
T8
X0.76437Y0.10000
X0.68563
M30
