M48
INCH,TZ
VER,1
FMAT,2
DETECT,ON
ATC,ON
T1C0.00787
T2C0.03937
T3C0.04016
T4C0.03500
T5C0.01181
T6C0.02756
T7C0.12520
T8C0.02756
%
T1
X-1.75657Y-0.01250
X-1.17844Y0.00000
X-1.23469Y0.00937
X-1.14094Y0.01563
X-1.59488Y0.00000
X-1.55551
X-1.25635Y-0.94665
X-1.26094Y-0.78000
X-1.26594Y-0.52187
X-1.93469Y-0.95000
X-1.53469Y-0.61875
X-1.73157Y-1.02500
X-1.44094Y-0.94688
Y-1.12500
X-1.50344Y-1.05000
X-1.44094Y-1.02500
X-1.49407Y-0.90000
X-1.44094Y-0.85000
X-1.28094Y-0.78000
X-1.39407Y-0.83125
Y-0.90000
X-1.31594Y-0.83125
X-1.39407Y-0.76250
X-1.75657Y-0.05625
X-1.63489Y-0.14828
X-1.62219Y-0.11250
X-1.59488Y-0.06890
X-1.34094Y-0.32187
X-1.28782Y-0.31875
X-1.43157Y-0.35625
X-1.45657Y-0.47500
X-1.48469Y-0.58750
X-1.45103Y-0.56009
X-1.46907Y-0.55937
X-1.45657Y-0.49688
X-1.45969Y-0.52500
X-1.27844Y-0.60625
X-1.30344Y-0.59375
X-1.34094Y-0.52500
X-1.28782Y-0.37500
X-1.44892Y-0.14828
X-1.55551Y-0.06890
X-1.47844Y-0.04688
X-1.28469Y-0.20000
X-1.35344Y-0.11250
Y-0.03750
X-1.24094Y-0.63750
X-1.16907Y-1.05000
X-1.02844Y-1.12813
X-1.07532Y-1.07500
X-1.02844Y-1.02813
X-1.16594Y-0.88438
X-1.13782
X-1.07844Y-0.90000
X-1.02844Y-0.85000
X-1.22532Y-0.30000
X-1.16594
Y-0.33125
X-1.08782Y-0.51563
Y-0.54688
X-1.23469Y-0.48125
X-1.17844
X-1.11907
X-1.17532Y-0.59375
X-1.11907
X-1.22532Y-0.33125
X-1.06907Y-0.39688
X-1.10657Y-0.26875
Y-0.23750
X-1.11594Y-0.10000
X-1.22532Y-0.23750
X-1.12844Y-0.26875
X-1.16594Y-0.23750
X-1.25969Y0.08437
X-1.99094Y0.12392
X-1.93469Y0.04375
X-1.84407Y0.10000
X-1.81142Y0.17669
X-1.68469Y0.06875
X-1.67844Y0.03438
X-1.71594Y0.02500
X-1.62844Y0.04063
X-1.55344Y0.04688
X-1.48469Y0.02187
X-1.35344Y0.06250
Y0.12500
X-0.67953Y0.22638
X-0.69921Y0.20669
X-0.67953Y0.18701
X-0.65984Y0.20669
T2
X0.00000Y0.10000
X-0.30000
X-0.20000
X-0.10000
X0.60000
X0.30000
X0.10000
X0.20000
X0.50000
X0.40000
X0.00000Y0.20000
X-0.30000
X-0.20000
X-0.10000
X0.60000
X0.30000
X0.10000
X0.20000
X0.50000
X0.40000
X0.00000Y-1.42000
X-0.30000
X-0.20000
X-0.10000
X0.60000
X0.30000
X0.10000
X0.20000
X0.50000
X0.40000
X-2.78189Y0.00000
X-3.38189
X-3.08189
X-3.28189
X-3.18189
X-2.88189
X-2.98189
X-2.48189
X-2.58189
X-2.68189
X-2.48189Y-1.30000
Y-1.40000
Y-1.20000
Y-0.50000
Y-0.60000
Y-1.10000
Y-1.00000
Y-0.80000
Y-0.90000
Y-0.70000
Y-0.30000
Y-0.40000
Y-0.20000
Y-0.10000
X-3.08189Y-1.30000
X-3.38189
X-3.28189
X-3.18189
X-2.78189
X-2.88189
X-2.98189
X-2.58189
X-2.68189
X-3.18189Y-1.40000
X-3.28189
X-3.38189
X-2.98189
X-3.08189
X-2.88189
X-2.68189
X-2.78189
X-2.58189
X-3.18189Y-0.60000
Y-1.10000
Y-1.20000
Y-1.00000
Y-0.80000
Y-0.90000
Y-0.70000
Y-0.30000
Y-0.50000
Y-0.40000
Y-0.20000
Y-0.10000
X-3.38189Y-0.60000
X-3.28189
Y-1.20000
Y-1.00000
Y-1.10000
X-3.38189
Y-1.20000
Y-1.00000
X-3.28189Y-0.90000
Y-0.70000
Y-0.80000
X-3.38189
Y-0.90000
Y-0.70000
Y-0.30000
X-3.28189
Y-0.50000
Y-0.40000
X-3.38189Y-0.50000
Y-0.40000
X-3.28189Y-0.20000
Y-0.10000
X-3.38189Y-0.20000
Y-0.10000
X-3.08189Y-0.60000
X-2.78189
X-2.88189
X-2.98189
X-2.58189
X-2.68189
X-2.98189Y-1.20000
Y-1.00000
Y-1.10000
X-3.08189
Y-1.20000
Y-1.00000
X-2.88189Y-1.10000
Y-1.20000
Y-1.00000
X-2.98189Y-0.90000
Y-0.70000
Y-0.80000
X-3.08189
Y-0.90000
Y-0.70000
X-2.88189Y-0.80000
Y-0.90000
Y-0.70000
X-2.68189Y-1.10000
Y-1.20000
Y-1.00000
X-2.78189Y-1.10000
Y-1.20000
Y-1.00000
X-2.58189Y-1.10000
Y-1.20000
Y-1.00000
X-2.68189Y-0.80000
Y-0.90000
Y-0.70000
X-2.78189Y-0.80000
Y-0.90000
Y-0.70000
X-2.58189Y-0.80000
Y-0.90000
Y-0.70000
X-3.08189Y-0.30000
X-2.88189
X-2.98189
Y-0.50000
Y-0.40000
X-3.08189Y-0.50000
Y-0.40000
X-2.88189Y-0.50000
Y-0.40000
X-2.98189Y-0.20000
Y-0.10000
X-3.08189Y-0.20000
Y-0.10000
X-2.88189Y-0.20000
Y-0.10000
X-2.78189Y-0.30000
X-2.58189
X-2.68189
Y-0.50000
Y-0.40000
X-2.78189Y-0.50000
Y-0.40000
X-2.58189Y-0.50000
Y-0.40000
X-2.68189Y-0.20000
Y-0.10000
X-2.78189Y-0.20000
Y-0.10000
X-2.58189Y-0.20000
Y-0.10000
X-2.48189Y0.10000
Y0.20000
X-3.18189Y0.10000
Y0.20000
X-3.28189Y0.10000
Y0.20000
X-3.38189Y0.10000
Y0.20000
X-2.98189Y0.10000
Y0.20000
X-3.08189Y0.10000
Y0.20000
X-2.88189Y0.10000
Y0.20000
X-2.68189Y0.10000
Y0.20000
X-2.78189Y0.10000
Y0.20000
X-2.58189Y0.10000
Y0.20000
X-0.10000Y0.00000
X-0.20000
X-0.10000Y-1.30000
X-0.20000
X-0.10000Y-0.60000
X-0.20000
Y-1.10000
Y-1.20000
Y-1.00000
X-0.10000Y-1.10000
Y-1.20000
Y-1.00000
X-0.20000Y-0.80000
Y-0.90000
Y-0.70000
X-0.10000Y-0.80000
Y-0.90000
Y-0.70000
Y-0.30000
X-0.20000
Y-0.50000
Y-0.40000
X-0.10000Y-0.50000
Y-0.40000
X-0.20000Y-0.20000
Y-0.10000
X-0.10000Y-0.20000
Y-0.10000
X0.40000Y0.00000
X0.50000
X0.40000Y-1.30000
X0.50000
Y-0.60000
X0.40000
X0.50000Y-1.10000
Y-1.20000
Y-1.00000
X0.40000Y-1.10000
Y-1.20000
Y-1.00000
X0.50000Y-0.80000
Y-0.90000
Y-0.70000
X0.40000Y-0.80000
Y-0.90000
Y-0.70000
X0.50000Y-0.30000
X0.40000
X0.50000Y-0.50000
Y-0.40000
X0.40000Y-0.50000
Y-0.40000
X0.50000Y-0.20000
Y-0.10000
X0.40000Y-0.20000
Y-0.10000
T3
X-1.84094Y0.00000
Y-1.30000
Y-0.60000
Y-1.10000
Y-1.20000
Y-1.00000
Y-0.80000
Y-0.90000
Y-0.70000
Y-0.30000
Y-0.50000
Y-0.40000
Y-0.20000
Y-0.10000
X-2.04094Y0.00000
Y-1.30000
Y-0.60000
Y-1.10000
Y-1.20000
Y-1.00000
Y-0.80000
Y-0.90000
Y-0.70000
Y-0.30000
Y-0.50000
Y-0.40000
Y-0.20000
Y-0.10000
X-0.74094Y0.00000
Y-1.30000
Y-0.60000
Y-1.10000
Y-1.20000
Y-1.00000
Y-0.80000
Y-0.90000
Y-0.70000
Y-0.30000
Y-0.50000
Y-0.40000
Y-0.20000
Y-0.10000
X-0.94094Y0.00000
Y-1.30000
Y-0.60000
Y-1.10000
Y-1.20000
Y-1.00000
Y-0.80000
Y-0.90000
Y-0.70000
Y-0.30000
Y-0.50000
Y-0.40000
Y-0.20000
Y-0.10000
T4
X-0.30000Y0.00000
Y-1.30000
Y-0.60000
Y-0.70000
Y-0.80000
Y-1.20000
Y-1.00000
Y-0.90000
Y-1.10000
Y-0.20000
Y-0.10000
Y-0.40000
Y-0.30000
Y-0.50000
X-1.59094Y-0.60000
X-1.69094
X-1.59094Y-0.70000
Y-0.80000
X-1.69094
Y-0.70000
X-1.59094Y-0.20000
Y-0.30000
Y-0.40000
Y-0.50000
X-1.69094Y-0.30000
Y-0.50000
Y-0.40000
Y-0.20000
X0.60000Y0.00000
Y-1.30000
Y-0.20000
Y-0.10000
Y-0.40000
Y-0.30000
Y-0.50000
Y-0.70000
Y-0.60000
Y-0.80000
Y-1.20000
Y-1.00000
Y-0.90000
Y-1.10000
T5
X-1.19813Y-0.43578
Y-0.37672
X-1.17844Y-0.40625
X-1.15876Y-0.37672
Y-0.43578
X-1.41344Y-0.51675
X-1.38195
T6
X-2.31339Y-1.43701
Y-1.35827
Y-1.27953
Y-1.31890
Y-1.39764
Y-0.63976
Y-0.67913
Y-0.60039
Y-0.52165
Y-0.56102
X-0.47283Y-1.43701
Y-1.27953
Y-1.35827
Y-1.39764
Y-1.31890
Y-0.63976
Y-0.67913
Y-0.60039
Y-0.56102
Y-0.52165
X-2.31339Y0.14764
Y0.10827
Y0.06890
Y0.22638
Y0.18701
X-0.47283Y0.14764
Y0.06890
Y0.10827
Y0.18701
Y0.22638
T7
X-1.94094Y-1.46250
X-0.84094Y0.17500
T8
X-1.07657Y0.10000
X-1.15531
M30
